# MagicaVoxel @ Ephtracy

# material
mtllib Pingvin.mtl
usemtl palette

# normals
vn -1 0 0
vn 1 0 0
vn 0 0 1
vn 0 0 -1
vn 0 -1 0
vn 0 1 0

# texcoords
vt 0.0136719 0.5
vt 0.0175781 0.5
vt 0.0214844 0.5
vt 0.0449219 0.5
vt 0.0917969 0.5
vt 0.958984 0.5
vt 0.986328 0.5
vt 0.994141 0.5

# verts
v -6 4 1.5
v -6 4 0.5
v -6 5 2.5
v -6 5 1.5
v -6 5 0.5
v -6 5 -0.5
v -6 10 2.5
v -6 10 -0.5
v -5 10 2.5
v -5 10 -0.5
v -5 11 2.5
v -5 11 -0.5
v -4 0 3.5
v -4 0 -1.5
v -4 0 -2.5
v -4 1 -0.5
v -4 1 -1.5
v -4 3 0.5
v -4 3 -0.5
v -4 5 2.5
v -4 5 0.5
v -4 9 2.5
v -4 9 -0.5
v -4 11 3.5
v -4 11 2.5
v -4 11 -0.5
v -4 13 3.5
v -4 13 -2.5
v -3 0 5.5
v -3 0 3.5
v -3 1 5.5
v -3 1 3.5
v -3 13 3.5
v -3 13 2.5
v -3 13 -0.5
v -3 13 -1.5
v -3 14 2.5
v -3 14 0.5
v -3 16 2.5
v -3 16 0.5
v -3 16 -0.5
v -3 18 3.5
v -3 18 -1.5
v -2 0 -2.5
v -2 0 -3.5
v -2 3 -2.5
v -2 3 -3.5
v -2 14 4.5
v -2 14 3.5
v -2 15 4.5
v -2 15 3.5
v -1 0 -3.5
v -1 0 -5.5
v -1 1 -4.5
v -1 1 -5.5
v -1 2 -3.5
v -1 2 -4.5
v -1 14 5.5
v -1 14 4.5
v -1 15 5.5
v -1 15 4.5
v 1 0 5.5
v 1 0 3.5
v 1 1 5.5
v 1 1 3.5
v 5 4 1.5
v 5 4 0.5
v 5 5 2.5
v 5 5 1.5
v 5 5 0.5
v 5 5 -0.5
v 5 9 2.5
v 5 9 -0.5
v -5 4 1.5
v -5 4 0.5
v -5 5 2.5
v -5 5 1.5
v -5 5 0.5
v -5 5 -0.5
v -5 9 2.5
v -5 9 -0.5
v -1 0 5.5
v -1 0 3.5
v -1 1 5.5
v -1 1 3.5
v 0 0 -3.5
v 0 0 -5.5
v 0 1 -4.5
v 0 1 -5.5
v 0 2 -3.5
v 0 2 -4.5
v 1 0 -2.5
v 1 0 -3.5
v 1 3 -2.5
v 1 3 -3.5
v 1 14 5.5
v 1 14 4.5
v 1 15 5.5
v 1 15 4.5
v 2 14 4.5
v 2 14 3.5
v 2 15 4.5
v 2 15 3.5
v 3 0 5.5
v 3 0 3.5
v 3 1 5.5
v 3 1 3.5
v 3 13 3.5
v 3 13 2.5
v 3 13 -0.5
v 3 13 -1.5
v 3 14 2.5
v 3 14 0.5
v 3 16 2.5
v 3 16 0.5
v 3 16 -0.5
v 3 18 3.5
v 3 18 -1.5
v 4 0 3.5
v 4 0 -1.5
v 4 0 -2.5
v 4 1 -0.5
v 4 1 -1.5
v 4 3 0.5
v 4 3 -0.5
v 4 5 2.5
v 4 5 0.5
v 4 9 2.5
v 4 9 -0.5
v 4 11 3.5
v 4 11 2.5
v 4 11 -0.5
v 4 13 3.5
v 4 13 -2.5
v 5 10 2.5
v 5 10 -0.5
v 5 11 2.5
v 5 11 -0.5
v 6 4 1.5
v 6 4 0.5
v 6 5 2.5
v 6 5 1.5
v 6 5 0.5
v 6 5 -0.5
v 6 10 2.5
v 6 10 -0.5
v -3 0 5.5
v -3 1 5.5
v -1 0 5.5
v -1 1 5.5
v -1 14 5.5
v -1 15 5.5
v 1 0 5.5
v 1 1 5.5
v 1 14 5.5
v 1 15 5.5
v 3 0 5.5
v 3 1 5.5
v -2 14 4.5
v -2 15 4.5
v -1 14 4.5
v -1 15 4.5
v 1 14 4.5
v 1 15 4.5
v 2 14 4.5
v 2 15 4.5
v -4 0 3.5
v -4 11 3.5
v -4 13 3.5
v -3 0 3.5
v -3 1 3.5
v -3 10 3.5
v -3 11 3.5
v -3 12 3.5
v -3 13 3.5
v -3 18 3.5
v -2 14 3.5
v -2 15 3.5
v -2 16 3.5
v -2 17 3.5
v -1 0 3.5
v -1 1 3.5
v -1 16 3.5
v -1 17 3.5
v 1 0 3.5
v 1 1 3.5
v 1 16 3.5
v 1 17 3.5
v 2 14 3.5
v 2 15 3.5
v 2 16 3.5
v 2 17 3.5
v 3 0 3.5
v 3 1 3.5
v 3 10 3.5
v 3 11 3.5
v 3 12 3.5
v 3 13 3.5
v 3 18 3.5
v 4 0 3.5
v 4 11 3.5
v 4 13 3.5
v -6 5 2.5
v -6 10 2.5
v -5 5 2.5
v -5 9 2.5
v -5 10 2.5
v -5 11 2.5
v -4 9 2.5
v -4 11 2.5
v 4 9 2.5
v 4 11 2.5
v 5 5 2.5
v 5 9 2.5
v 5 10 2.5
v 5 11 2.5
v 6 5 2.5
v 6 10 2.5
v -6 4 1.5
v -6 5 1.5
v -5 4 1.5
v -5 5 1.5
v 5 4 1.5
v 5 5 1.5
v 6 4 1.5
v 6 5 1.5
v -6 4 0.5
v -6 5 0.5
v -5 4 0.5
v -5 5 0.5
v 5 4 0.5
v 5 5 0.5
v 6 4 0.5
v 6 5 0.5
v -6 5 -0.5
v -6 10 -0.5
v -5 5 -0.5
v -5 9 -0.5
v -5 10 -0.5
v -5 11 -0.5
v -4 9 -0.5
v -4 11 -0.5
v 4 9 -0.5
v 4 11 -0.5
v 5 5 -0.5
v 5 9 -0.5
v 5 10 -0.5
v 5 11 -0.5
v 6 5 -0.5
v 6 10 -0.5
v -3 13 -1.5
v -3 18 -1.5
v 3 13 -1.5
v 3 18 -1.5
v -4 0 -2.5
v -4 13 -2.5
v -2 0 -2.5
v -2 3 -2.5
v 1 0 -2.5
v 1 3 -2.5
v 4 0 -2.5
v 4 13 -2.5
v -2 0 -3.5
v -2 3 -3.5
v -1 0 -3.5
v -1 2 -3.5
v 0 0 -3.5
v 0 2 -3.5
v 1 0 -3.5
v 1 3 -3.5
v -1 1 -4.5
v -1 2 -4.5
v 0 1 -4.5
v 0 2 -4.5
v -1 0 -5.5
v -1 1 -5.5
v 0 0 -5.5
v 0 1 -5.5
v -3 0 5.5
v -1 0 5.5
v 1 0 5.5
v 3 0 5.5
v -4 0 3.5
v -3 0 3.5
v -1 0 3.5
v 1 0 3.5
v 3 0 3.5
v 4 0 3.5
v -4 0 -1.5
v 4 0 -1.5
v -4 0 -2.5
v -2 0 -2.5
v 1 0 -2.5
v 4 0 -2.5
v -2 0 -3.5
v -1 0 -3.5
v 0 0 -3.5
v 1 0 -3.5
v -1 0 -5.5
v 0 0 -5.5
v -6 4 1.5
v -5 4 1.5
v 5 4 1.5
v 6 4 1.5
v -6 4 0.5
v -5 4 0.5
v 5 4 0.5
v 6 4 0.5
v -6 5 2.5
v -5 5 2.5
v 5 5 2.5
v 6 5 2.5
v -6 5 1.5
v -5 5 1.5
v 5 5 1.5
v 6 5 1.5
v -6 5 0.5
v -5 5 0.5
v 5 5 0.5
v 6 5 0.5
v -6 5 -0.5
v -5 5 -0.5
v 5 5 -0.5
v 6 5 -0.5
v -5 9 2.5
v -4 9 2.5
v 4 9 2.5
v 5 9 2.5
v -5 9 -0.5
v -4 9 -0.5
v 4 9 -0.5
v 5 9 -0.5
v -1 14 5.5
v 1 14 5.5
v -2 14 4.5
v -1 14 4.5
v 1 14 4.5
v 2 14 4.5
v -2 14 3.5
v 2 14 3.5
v -3 1 5.5
v -1 1 5.5
v 1 1 5.5
v 3 1 5.5
v -3 1 3.5
v -1 1 3.5
v 1 1 3.5
v 3 1 3.5
v -1 1 -4.5
v 0 1 -4.5
v -1 1 -5.5
v 0 1 -5.5
v -1 2 -3.5
v 0 2 -3.5
v -1 2 -4.5
v 0 2 -4.5
v -2 3 -2.5
v 1 3 -2.5
v -2 3 -3.5
v 1 3 -3.5
v -6 10 2.5
v -5 10 2.5
v 5 10 2.5
v 6 10 2.5
v -6 10 -0.5
v -5 10 -0.5
v 5 10 -0.5
v 6 10 -0.5
v -5 11 2.5
v -4 11 2.5
v 4 11 2.5
v 5 11 2.5
v -5 11 -0.5
v -4 11 -0.5
v 4 11 -0.5
v 5 11 -0.5
v -4 13 3.5
v -3 13 3.5
v 3 13 3.5
v 4 13 3.5
v -3 13 2.5
v 3 13 2.5
v -3 13 -0.5
v 3 13 -0.5
v -3 13 -1.5
v 3 13 -1.5
v -4 13 -2.5
v 4 13 -2.5
v -1 15 5.5
v 1 15 5.5
v -2 15 4.5
v -1 15 4.5
v 1 15 4.5
v 2 15 4.5
v -2 15 3.5
v 2 15 3.5
v -3 18 3.5
v 3 18 3.5
v -3 18 -1.5
v 3 18 -1.5

# faces
f 4/7/1 2/7/1 1/7/1
f 5/7/1 2/7/1 4/7/1
f 7/7/1 4/7/1 3/7/1
f 7/7/1 6/7/1 5/7/1
f 7/7/1 5/7/1 4/7/1
f 8/7/1 6/7/1 7/7/1
f 11/7/1 10/7/1 9/7/1
f 12/7/1 10/7/1 11/7/1
f 16/6/1 14/6/1 13/6/1
f 17/7/1 15/7/1 14/7/1
f 17/6/1 14/6/1 16/6/1
f 18/6/1 16/6/1 13/6/1
f 19/7/1 17/7/1 16/7/1
f 19/6/1 16/6/1 18/6/1
f 20/6/1 18/6/1 13/6/1
f 21/7/1 19/7/1 18/7/1
f 21/6/1 18/6/1 20/6/1
f 22/6/1 20/6/1 13/6/1
f 22/7/1 21/7/1 20/7/1
f 23/7/1 17/7/1 19/7/1
f 23/7/1 21/7/1 22/7/1
f 23/7/1 19/7/1 21/7/1
f 24/6/1 22/6/1 13/6/1
f 25/6/1 22/6/1 24/6/1
f 26/7/1 17/7/1 23/7/1
f 27/7/1 25/7/1 24/7/1
f 27/7/1 26/7/1 25/7/1
f 28/7/1 15/7/1 17/7/1
f 28/7/1 26/7/1 27/7/1
f 28/7/1 17/7/1 26/7/1
f 31/5/1 30/5/1 29/5/1
f 32/5/1 30/5/1 31/5/1
f 37/7/1 34/7/1 33/7/1
f 37/4/1 35/4/1 34/4/1
f 38/4/1 35/4/1 37/4/1
f 39/7/1 37/7/1 33/7/1
f 39/1/1 38/1/1 37/1/1
f 40/4/1 35/4/1 38/4/1
f 40/1/1 38/1/1 39/1/1
f 41/7/1 36/7/1 35/7/1
f 41/4/1 35/4/1 40/4/1
f 42/7/1 40/7/1 39/7/1
f 42/7/1 39/7/1 33/7/1
f 42/7/1 41/7/1 40/7/1
f 43/7/1 36/7/1 41/7/1
f 43/7/1 41/7/1 42/7/1
f 46/7/1 45/7/1 44/7/1
f 47/7/1 45/7/1 46/7/1
f 50/5/1 49/5/1 48/5/1
f 51/5/1 49/5/1 50/5/1
f 54/7/1 53/7/1 52/7/1
f 55/7/1 53/7/1 54/7/1
f 56/7/1 54/7/1 52/7/1
f 57/7/1 54/7/1 56/7/1
f 60/5/1 59/5/1 58/5/1
f 61/5/1 59/5/1 60/5/1
f 64/5/1 63/5/1 62/5/1
f 65/5/1 63/5/1 64/5/1
f 69/7/1 67/7/1 66/7/1
f 70/7/1 67/7/1 69/7/1
f 72/7/1 69/7/1 68/7/1
f 72/7/1 71/7/1 70/7/1
f 72/7/1 70/7/1 69/7/1
f 73/7/1 71/7/1 72/7/1
f 74/7/2 75/7/2 77/7/2
f 77/7/2 75/7/2 78/7/2
f 76/7/2 77/7/2 80/7/2
f 78/7/2 79/7/2 80/7/2
f 77/7/2 78/7/2 80/7/2
f 80/7/2 79/7/2 81/7/2
f 82/5/2 83/5/2 84/5/2
f 84/5/2 83/5/2 85/5/2
f 86/7/2 87/7/2 88/7/2
f 88/7/2 87/7/2 89/7/2
f 86/7/2 88/7/2 90/7/2
f 90/7/2 88/7/2 91/7/2
f 92/7/2 93/7/2 94/7/2
f 94/7/2 93/7/2 95/7/2
f 96/5/2 97/5/2 98/5/2
f 98/5/2 97/5/2 99/5/2
f 100/5/2 101/5/2 102/5/2
f 102/5/2 101/5/2 103/5/2
f 104/5/2 105/5/2 106/5/2
f 106/5/2 105/5/2 107/5/2
f 108/7/2 109/7/2 112/7/2
f 109/4/2 110/4/2 112/4/2
f 112/4/2 110/4/2 113/4/2
f 108/7/2 112/7/2 114/7/2
f 112/1/2 113/1/2 114/1/2
f 113/4/2 110/4/2 115/4/2
f 114/1/2 113/1/2 115/1/2
f 110/7/2 111/7/2 116/7/2
f 115/4/2 110/4/2 116/4/2
f 114/7/2 115/7/2 117/7/2
f 108/7/2 114/7/2 117/7/2
f 115/7/2 116/7/2 117/7/2
f 116/7/2 111/7/2 118/7/2
f 117/7/2 116/7/2 118/7/2
f 119/6/2 120/6/2 122/6/2
f 120/7/2 121/7/2 123/7/2
f 122/6/2 120/6/2 123/6/2
f 119/6/2 122/6/2 124/6/2
f 122/7/2 123/7/2 125/7/2
f 124/6/2 122/6/2 125/6/2
f 119/6/2 124/6/2 126/6/2
f 124/7/2 125/7/2 127/7/2
f 126/6/2 124/6/2 127/6/2
f 119/6/2 126/6/2 128/6/2
f 126/7/2 127/7/2 128/7/2
f 125/7/2 123/7/2 129/7/2
f 128/7/2 127/7/2 129/7/2
f 127/7/2 125/7/2 129/7/2
f 119/6/2 128/6/2 130/6/2
f 130/6/2 128/6/2 131/6/2
f 129/7/2 123/7/2 132/7/2
f 130/7/2 131/7/2 133/7/2
f 131/7/2 132/7/2 133/7/2
f 123/7/2 121/7/2 134/7/2
f 133/7/2 132/7/2 134/7/2
f 132/7/2 123/7/2 134/7/2
f 135/7/2 136/7/2 137/7/2
f 137/7/2 136/7/2 138/7/2
f 139/7/2 140/7/2 142/7/2
f 142/7/2 140/7/2 143/7/2
f 141/7/2 142/7/2 145/7/2
f 143/7/2 144/7/2 145/7/2
f 142/7/2 143/7/2 145/7/2
f 145/7/2 144/7/2 146/7/2
f 149/5/3 148/5/3 147/5/3
f 150/5/3 148/5/3 149/5/3
f 155/5/3 152/5/3 151/5/3
f 156/5/3 152/5/3 155/5/3
f 157/5/3 154/5/3 153/5/3
f 158/5/3 154/5/3 157/5/3
f 161/5/3 160/5/3 159/5/3
f 162/5/3 160/5/3 161/5/3
f 165/5/3 164/5/3 163/5/3
f 166/5/3 164/5/3 165/5/3
f 170/6/3 168/6/3 167/6/3
f 171/6/3 168/6/3 170/6/3
f 172/6/3 168/6/3 171/6/3
f 173/7/3 169/7/3 168/7/3
f 173/6/3 168/6/3 172/6/3
f 174/7/3 169/7/3 173/7/3
f 175/7/3 169/7/3 174/7/3
f 177/7/3 176/7/3 175/7/3
f 178/7/3 176/7/3 177/7/3
f 179/7/3 176/7/3 178/7/3
f 180/7/3 176/7/3 179/7/3
f 182/6/3 172/6/3 171/6/3
f 183/8/3 180/8/3 179/8/3
f 183/7/3 179/7/3 178/7/3
f 184/7/3 176/7/3 180/7/3
f 184/8/3 180/8/3 183/8/3
f 185/6/3 182/6/3 181/6/3
f 186/6/3 172/6/3 182/6/3
f 186/6/3 182/6/3 185/6/3
f 187/7/3 183/7/3 178/7/3
f 187/7/3 184/7/3 183/7/3
f 188/7/3 176/7/3 184/7/3
f 188/7/3 184/7/3 187/7/3
f 189/7/3 177/7/3 175/7/3
f 190/7/3 187/7/3 178/7/3
f 191/8/3 188/8/3 187/8/3
f 191/7/3 187/7/3 190/7/3
f 192/7/3 176/7/3 188/7/3
f 192/8/3 188/8/3 191/8/3
f 194/6/3 172/6/3 186/6/3
f 195/1/3 173/1/3 172/1/3
f 195/6/3 172/6/3 194/6/3
f 196/2/3 174/2/3 173/2/3
f 196/1/3 173/1/3 195/1/3
f 197/3/3 175/3/3 174/3/3
f 197/2/3 174/2/3 196/2/3
f 198/7/3 189/7/3 175/7/3
f 198/3/3 175/3/3 197/3/3
f 198/7/3 191/7/3 190/7/3
f 198/7/3 190/7/3 189/7/3
f 198/7/3 192/7/3 191/7/3
f 199/7/3 176/7/3 192/7/3
f 199/7/3 192/7/3 198/7/3
f 200/6/3 196/6/3 195/6/3
f 200/6/3 194/6/3 193/6/3
f 200/6/3 195/6/3 194/6/3
f 201/7/3 197/7/3 196/7/3
f 201/6/3 196/6/3 200/6/3
f 201/7/3 198/7/3 197/7/3
f 202/7/3 198/7/3 201/7/3
f 205/7/3 204/7/3 203/7/3
f 206/7/3 204/7/3 205/7/3
f 207/7/3 204/7/3 206/7/3
f 209/7/3 208/7/3 207/7/3
f 209/7/3 207/7/3 206/7/3
f 210/7/3 208/7/3 209/7/3
f 214/7/3 212/7/3 211/7/3
f 215/7/3 212/7/3 214/7/3
f 216/7/3 212/7/3 215/7/3
f 217/7/3 214/7/3 213/7/3
f 217/7/3 215/7/3 214/7/3
f 218/7/3 215/7/3 217/7/3
f 221/7/3 220/7/3 219/7/3
f 222/7/3 220/7/3 221/7/3
f 225/7/3 224/7/3 223/7/3
f 226/7/3 224/7/3 225/7/3
f 227/7/4 228/7/4 229/7/4
f 229/7/4 228/7/4 230/7/4
f 231/7/4 232/7/4 233/7/4
f 233/7/4 232/7/4 234/7/4
f 235/7/4 236/7/4 237/7/4
f 237/7/4 236/7/4 238/7/4
f 238/7/4 236/7/4 239/7/4
f 239/7/4 240/7/4 241/7/4
f 238/7/4 239/7/4 241/7/4
f 241/7/4 240/7/4 242/7/4
f 243/7/4 244/7/4 246/7/4
f 246/7/4 244/7/4 247/7/4
f 247/7/4 244/7/4 248/7/4
f 245/7/4 246/7/4 249/7/4
f 246/7/4 247/7/4 249/7/4
f 249/7/4 247/7/4 250/7/4
f 251/7/4 252/7/4 253/7/4
f 253/7/4 252/7/4 254/7/4
f 255/7/4 256/7/4 257/7/4
f 257/7/4 256/7/4 258/7/4
f 258/7/4 256/7/4 260/7/4
f 259/7/4 260/7/4 261/7/4
f 260/7/4 256/7/4 262/7/4
f 261/7/4 260/7/4 262/7/4
f 263/7/4 264/7/4 265/7/4
f 265/7/4 264/7/4 266/7/4
f 266/7/4 264/7/4 268/7/4
f 267/7/4 268/7/4 269/7/4
f 268/7/4 264/7/4 270/7/4
f 269/7/4 268/7/4 270/7/4
f 271/7/4 272/7/4 273/7/4
f 273/7/4 272/7/4 274/7/4
f 275/7/4 276/7/4 277/7/4
f 277/7/4 276/7/4 278/7/4
f 284/5/5 280/5/5 279/5/5
f 285/5/5 280/5/5 284/5/5
f 286/5/5 282/5/5 281/5/5
f 287/5/5 282/5/5 286/5/5
f 289/6/5 285/6/5 284/6/5
f 289/6/5 288/6/5 287/6/5
f 289/6/5 287/6/5 286/6/5
f 289/6/5 286/6/5 285/6/5
f 289/6/5 284/6/5 283/6/5
f 290/6/5 288/6/5 289/6/5
f 291/7/5 290/7/5 289/7/5
f 292/7/5 290/7/5 291/7/5
f 293/7/5 290/7/5 292/7/5
f 294/7/5 290/7/5 293/7/5
f 295/7/5 293/7/5 292/7/5
f 296/7/5 293/7/5 295/7/5
f 297/7/5 293/7/5 296/7/5
f 298/7/5 293/7/5 297/7/5
f 299/7/5 297/7/5 296/7/5
f 300/7/5 297/7/5 299/7/5
f 305/7/5 302/7/5 301/7/5
f 306/7/5 302/7/5 305/7/5
f 307/7/5 304/7/5 303/7/5
f 308/7/5 304/7/5 307/7/5
f 313/7/5 310/7/5 309/7/5
f 314/7/5 310/7/5 313/7/5
f 315/7/5 312/7/5 311/7/5
f 316/7/5 312/7/5 315/7/5
f 321/7/5 318/7/5 317/7/5
f 322/7/5 318/7/5 321/7/5
f 323/7/5 320/7/5 319/7/5
f 324/7/5 320/7/5 323/7/5
f 329/7/5 326/7/5 325/7/5
f 330/7/5 326/7/5 329/7/5
f 331/7/5 328/7/5 327/7/5
f 332/7/5 328/7/5 331/7/5
f 336/5/5 334/5/5 333/5/5
f 337/5/5 334/5/5 336/5/5
f 339/5/5 336/5/5 335/5/5
f 339/5/5 338/5/5 337/5/5
f 339/5/5 337/5/5 336/5/5
f 340/5/5 338/5/5 339/5/5
f 341/5/6 342/5/6 345/5/6
f 345/5/6 342/5/6 346/5/6
f 343/5/6 344/5/6 347/5/6
f 347/5/6 344/5/6 348/5/6
f 349/7/6 350/7/6 351/7/6
f 351/7/6 350/7/6 352/7/6
f 353/7/6 354/7/6 355/7/6
f 355/7/6 354/7/6 356/7/6
f 357/7/6 358/7/6 359/7/6
f 359/7/6 358/7/6 360/7/6
f 361/7/6 362/7/6 365/7/6
f 365/7/6 362/7/6 366/7/6
f 363/7/6 364/7/6 367/7/6
f 367/7/6 364/7/6 368/7/6
f 369/7/6 370/7/6 373/7/6
f 373/7/6 370/7/6 374/7/6
f 371/7/6 372/7/6 375/7/6
f 375/7/6 372/7/6 376/7/6
f 377/7/6 378/7/6 381/7/6
f 379/7/6 380/7/6 382/7/6
f 377/7/6 381/7/6 383/7/6
f 382/7/6 380/7/6 384/7/6
f 377/7/6 383/7/6 385/7/6
f 384/7/6 380/7/6 386/7/6
f 377/7/6 385/7/6 387/7/6
f 385/7/6 386/7/6 387/7/6
f 386/7/6 380/7/6 388/7/6
f 387/7/6 386/7/6 388/7/6
f 389/5/6 390/5/6 392/5/6
f 392/5/6 390/5/6 393/5/6
f 391/5/6 392/5/6 395/5/6
f 393/5/6 394/5/6 395/5/6
f 392/5/6 393/5/6 395/5/6
f 395/5/6 394/5/6 396/5/6
f 397/7/6 398/7/6 399/7/6
f 399/7/6 398/7/6 400/7/6
